# xmcd
#
# Track frame offsets:
#	150
#	19870
#	29948
#	43500
#	57225
#	70603
#	86360
#	101788
#	117858
#	133698
#	150373
#	167953
#	182065
#	199505
#
# Disc length: 2869 seconds
#
# Revision: 3
# Processed by: cddbd v1.5.2PL0 Copyright (c) Steve Scherf et al.
# Submitted via: audiograbber 1.83.01
#
DISCID=b90b330e
DTITLE=Various Artist - Those Wonderful Years on Broadway
DYEAR=1994
DGENRE=Soundtrack Broadway
TTITLE0=Ray Bolger - Once In Love With Amy
TTITLE1=Alfred Drake - So In Love
TTITLE2=Carol Channing - Diamonds Are A Girl's Best Friend
TTITLE3=Ezio Pinza - Some Enchanted Evening
TTITLE4=Isabel Bigley - If I Were A Bell
TTITLE5=Gertrude Lawrence - Getting To Know You
TTITLE6=Ella Logan, Donald Richards - Old Devil Moon
TTITLE7=John Raitt - Hey There
TTITLE8=Julie Andrews, Philippa Bevans - I Could Have Danced All Night
TTITLE9=Judy Holliday, Sydney Chaplin - Just In Time
TTITLE10=Carol Lawrence, Larry Kert - Tonight
TTITLE11=Ethel Merman - Everything's Coming Up Roses
TTITLE12=Angela Lansbury - If He Walked Into My Life
TTITLE13=Patricia Neway - Climb Ev'ry Mountain
EXTD=
EXTT0=
EXTT1=
EXTT2=
EXTT3=
EXTT4=
EXTT5=
EXTT6=
EXTT7=
EXTT8=
EXTT9=
EXTT10=
EXTT11=
EXTT12=
EXTT13=
PLAYORDER=
